<svg xmlns="http://www.w3.org/2000/svg" viewBox="0 0 153.77 31"><g data-name="Calque 2"><g data-name="Calque 1"><path d="M48.71 9.21a8.52 8.52 0 0 0-5.11 1.69V4.08h-3.48V17.8a8.59 8.59 0 1 0 8.59-8.59m0 13.69a5.11 5.11 0 1 1 5.1-5.1 5.11 5.11 0 0 1-5.1 5.1M85.85 9.21a8.56 8.56 0 0 0-5.11 1.69V4.08h-3.47V17.8a8.58 8.58 0 1 0 8.58-8.59m0 13.69A5.11 5.11 0 1 1 91 17.8a5.11 5.11 0 0 1-5.11 5.1m18.62-13.69a8.56 8.56 0 0 0-5.11 1.69V4.08h-3.47V17.8a8.59 8.59 0 1 0 8.58-8.59m0 13.69a5.11 5.11 0 1 1 5.11-5.1 5.12 5.12 0 0 1-5.11 5.1M75.72 9.29h-3.47v8.51a5 5 0 1 1-10 0V9.19h-3.46v8.64a8.49 8.49 0 0 0 13.5 6.85v1.78h3.47V9.29m38.8-5.21h3.47v22.38h-3.47zm17.23 17.31a5 5 0 0 1-3.62 1.51 5.11 5.11 0 0 1-4.81-3.39h13.22a8.78 8.78 0 0 0 .17-1.71 8.59 8.59 0 1 0-.79 3.59zm-3.62-8.7A5.13 5.13 0 0 1 133 16h-9.6a5.13 5.13 0 0 1 4.8-3.35m25.39 8.63a3.29 3.29 0 0 0-.25-2.73c-1.37-2.46-5.3-2.83-7.53-2.83a9.27 9.27 0 0 1-3.44-.53c-.63-.32-.23-.92-.12-1.06a4.59 4.59 0 0 1 3.6-1.48 5.11 5.11 0 0 1 3.62 1.51h4.17a8.71 8.71 0 0 0-7.79-5c-3.25 0-6.43 1.47-7.6 4.45-.54 1.38-.83 3.73 3.51 5.15a13.4 13.4 0 0 0 4.05.48 10.25 10.25 0 0 1 2.8.29c1.6.48 1.12 1.5.84 1.82a4.83 4.83 0 0 1-3.67 1.56 5.09 5.09 0 0 1-3.62-1.51H138a8.61 8.61 0 0 0 7.79 5 8.52 8.52 0 0 0 7.28-4.05c.08-.13.21-.35.29-.51a6 6 0 0 0 .24-.59" fill="#ffffff"/><path d="M15.54 0A15.5 15.5 0 1 1 0 15.36 15.48 15.48 0 0 1 15.54 0m.05 4.1a9.29 9.29 0 0 0-1.83.15A11.18 11.18 0 0 0 4.49 16.7a10.55 10.55 0 0 0 1.72 4.65.71.71 0 0 1 .11.6c-.17.61-.32 1.21-.48 1.81s-.31 1.18-.46 1.78c-.06.19 0 .22.17.17h.08c1.2-.3 2.41-.6 3.61-.92a.83.83 0 0 1 .67.1 10.86 10.86 0 0 0 7.79 1.35 10.73 10.73 0 0 0 6.4-3.74 10.9 10.9 0 0 0 2.51-9 10.67 10.67 0 0 0-2.68-5.66 11.15 11.15 0 0 0-8.34-3.74" fill="#ffffff"/></g></g></svg>